# xmcd
#
# Track frame offsets:
#	150
#	13261
#	24908
#	35627
#	53023
#	67009
#	79933
#	91701
#	104721
#	124315
#	138484
#	153487
#	167474
#
# Disc length: 2377 seconds
# Revision: 0
# Processed by: cddbd v1.5.2PL0 Copyright (c) Steve Scherf et al.
# Submitted via: dBpowerAMP V12.0
#
DISCID=aa09470d
DTITLE=Hot Texas Swing Band - Ain't Dead Yet
DYEAR=2015
DGENRE=Country
TTITLE0=Ain't Dead Yet
TTITLE1=The Hard Way
TTITLE2=Back In My Texas Home
TTITLE3=Sway
TTITLE4=Bang Bang
TTITLE5=Along The Navajo Trail
TTITLE6=Boogie Woogie Bugle Boy
TTITLE7=Castle Walls
TTITLE8=You Don't Know Me
TTITLE9=7 Gigs In 7 Days
TTITLE10=The Whole World's Asleep
TTITLE11=Junior's Shadow
TTITLE12=Spring Has Com
EXTD=
EXTT0=
EXTT1=
EXTT2=
EXTT3=
EXTT4=
EXTT5=
EXTT6=
EXTT7=
EXTT8=
EXTT9=
EXTT10=
EXTT11=
EXTT12=
PLAYORDER=
